# xmcd CD database file
#
# Track frame offsets:
#	150
#	69057
#	98300
#
# Disc length: 2649 seconds
#
# Revision: 1
# Processed by: cddbd v1.5.1PL0 Copyright (c) Steve Scherf et al.
# Submitted via: CDex 1.51
#
DISCID=120a5703
DTITLE=Masayuki "JoJo" Takayanagi - Action Direct
DYEAR=1985
DGENRE=Jazz
TTITLE0=Dky Weather Alert
TTITLE1=Reaction
TTITLE2=Loop Road
EXTD=YEAR: 1985
EXTT0=
EXTT1=
EXTT2=
PLAYORDER=
